<svg width="34" height="34" viewBox="0 0 34 34" fill="none" xmlns="http://www.w3.org/2000/svg">
<path d="M17 0.0769043C12.4075 0.0769043 11.83 0.0980581 10.0256 0.178443C8.22114 0.263058 6.9921 0.54652 5.91537 0.965366C4.78595 1.39018 3.76294 2.05654 2.91787 2.91787C2.05707 3.76338 1.39078 4.78626 0.965366 5.91537C0.54652 6.98998 0.260943 8.22113 0.178443 10.0192C0.0980581 11.8279 0.0769043 12.4033 0.0769043 17.0021C0.0769043 21.5967 0.0980581 22.1721 0.178443 23.9765C0.263058 25.7788 0.54652 27.0079 0.965366 28.0846C1.39902 29.1973 1.97652 30.1407 2.91787 31.0821C3.8571 32.0234 4.80056 32.6031 5.91325 33.0346C6.9921 33.4534 8.21902 33.739 10.0213 33.8215C11.8279 33.9019 12.4032 33.9231 17 33.9231C21.5967 33.9231 22.17 33.9019 23.9765 33.8215C25.7767 33.7369 27.01 33.4534 28.0867 33.0346C29.2154 32.6096 30.2377 31.9432 31.0821 31.0821C32.0234 30.1407 32.6009 29.1973 33.0346 28.0846C33.4513 27.0079 33.7369 25.7788 33.8215 23.9765C33.9019 22.1721 33.9231 21.5967 33.9231 17C33.9231 12.4032 33.9019 11.8279 33.8215 10.0213C33.7369 8.22114 33.4513 6.98998 33.0346 5.91537C32.6092 4.78623 31.9429 3.76333 31.0821 2.91787C30.2373 2.05622 29.2142 1.38981 28.0846 0.965366C27.0057 0.54652 25.7746 0.260943 23.9744 0.178443C22.1679 0.0980581 21.5946 0.0769043 16.9958 0.0769043H17.0021H17ZM15.4833 3.12729H17.0021C21.5206 3.12729 22.0557 3.1421 23.839 3.2246C25.489 3.29864 26.3859 3.57575 26.9825 3.80633C27.7715 4.11306 28.3363 4.48113 28.9286 5.07344C29.5209 5.66575 29.8869 6.22844 30.1936 7.0196C30.4263 7.61402 30.7013 8.51094 30.7754 10.1609C30.8579 11.9442 30.8748 12.4794 30.8748 16.9958C30.8748 21.5121 30.8579 22.0494 30.7754 23.8327C30.7013 25.4827 30.4242 26.3775 30.1936 26.974C29.9223 27.7088 29.4893 28.3732 28.9265 28.9181C28.3342 29.5104 27.7715 29.8763 26.9804 30.1831C26.3881 30.4158 25.4911 30.6908 23.839 30.7669C22.0557 30.8473 21.5206 30.8663 17.0021 30.8663C12.4836 30.8663 11.9463 30.8473 10.1631 30.7669C8.51306 30.6908 7.61825 30.4158 7.02171 30.1831C6.28661 29.9121 5.62159 29.4799 5.07556 28.9181C4.51234 28.3724 4.07863 27.7073 3.80633 26.9719C3.57575 26.3775 3.29864 25.4806 3.2246 23.8306C3.14421 22.0473 3.12729 21.5121 3.12729 16.9915C3.12729 12.4731 3.14421 11.94 3.2246 10.1567C3.30075 8.50671 3.57575 7.60979 3.80844 7.01325C4.11517 6.22421 4.48325 5.6594 5.07556 5.0671C5.66787 4.47479 6.23056 4.10883 7.02171 3.8021C7.61825 3.5694 8.51306 3.2944 10.1631 3.21825C11.7242 3.14633 12.3292 3.12517 15.4833 3.12306V3.12729ZM26.0348 5.93652C25.7681 5.93652 25.504 5.98905 25.2576 6.0911C25.0113 6.19316 24.7874 6.34274 24.5988 6.53132C24.4102 6.71989 24.2607 6.94376 24.1586 7.19015C24.0565 7.43653 24.004 7.7006 24.004 7.96729C24.004 8.23397 24.0565 8.49805 24.1586 8.74443C24.2607 8.99081 24.4102 9.21469 24.5988 9.40326C24.7874 9.59183 25.0113 9.74142 25.2576 9.84347C25.504 9.94553 25.7681 9.99806 26.0348 9.99806C26.5734 9.99806 27.0899 9.7841 27.4708 9.40326C27.8516 9.02242 28.0656 8.50588 28.0656 7.96729C28.0656 7.4287 27.8516 6.91216 27.4708 6.53132C27.0899 6.15048 26.5734 5.93652 26.0348 5.93652ZM17.0021 8.30998C15.8494 8.292 14.7046 8.50351 13.6344 8.9322C12.5642 9.3609 11.5899 9.99821 10.7684 10.807C9.94684 11.6159 9.2944 12.58 8.84907 13.6434C8.40373 14.7068 8.17439 15.8482 8.17439 17.001C8.17439 18.1539 8.40373 19.2953 8.84907 20.3587C9.2944 21.4221 9.94684 22.3862 10.7684 23.195C11.5899 24.0039 12.5642 24.6412 13.6344 25.0699C14.7046 25.4986 15.8494 25.7101 17.0021 25.6921C19.2836 25.6565 21.4597 24.7252 23.0605 23.0992C24.6614 21.4731 25.5586 19.2828 25.5586 17.001C25.5586 14.7192 24.6614 12.5289 23.0605 10.9029C21.4597 9.2769 19.2836 8.34558 17.0021 8.30998ZM17.0021 11.3583C18.4984 11.3583 19.9334 11.9526 20.9914 13.0107C22.0494 14.0687 22.6438 15.5037 22.6438 17C22.6438 18.4963 22.0494 19.9313 20.9914 20.9893C19.9334 22.0473 18.4984 22.6417 17.0021 22.6417C15.5058 22.6417 14.0708 22.0473 13.0128 20.9893C11.9548 19.9313 11.3604 18.4963 11.3604 17C11.3604 15.5037 11.9548 14.0687 13.0128 13.0107C14.0708 11.9526 15.5058 11.3583 17.0021 11.3583Z" fill="white"/>
</svg>
