<svg width="33" height="31" viewBox="0 0 33 31" fill="none" xmlns="http://www.w3.org/2000/svg">
<path d="M30.5875 0.995054C30.1862 1.02425 29.7924 1.11839 29.4213 1.2738H29.4163C29.06 1.41505 27.3663 2.12755 24.7913 3.20755L15.5638 7.0938C8.94252 9.88131 2.43378 12.6263 2.43378 12.6263L2.51128 12.5963C2.51128 12.5963 2.06253 12.7438 1.59378 13.0651C1.30419 13.2493 1.05499 13.4904 0.861276 13.7738C0.631276 14.1113 0.446276 14.6276 0.515026 15.1613C0.627526 16.0638 1.21253 16.6051 1.63253 16.9038C2.05753 17.2063 2.46253 17.3476 2.46253 17.3476H2.47253L8.57628 19.4038C8.85003 20.2826 10.4363 25.4976 10.8175 26.6988C11.0425 27.4163 11.2613 27.8651 11.535 28.2076C11.6675 28.3826 11.8225 28.5288 12.0088 28.6463C12.1056 28.7026 12.2088 28.7471 12.3163 28.7788L12.2538 28.7638C12.2725 28.7688 12.2875 28.7838 12.3013 28.7888C12.3513 28.8026 12.385 28.8076 12.4488 28.8176C13.415 29.1101 14.1913 28.5101 14.1913 28.5101L14.235 28.4751L17.8388 25.1938L23.8788 29.8276L24.0163 29.8863C25.275 30.4388 26.55 30.1313 27.2238 29.5888C27.9025 29.0426 28.1663 28.3438 28.1663 28.3438L28.21 28.2313L32.8775 4.32005C33.01 3.73005 33.0438 3.17755 32.8975 2.6413C32.7467 2.09859 32.3985 1.63181 31.9213 1.33255C31.5206 1.08895 31.0559 0.971364 30.5875 0.995054ZM30.4613 3.55755C30.4563 3.6363 30.4713 3.62755 30.4363 3.7788V3.79255L25.8125 27.4551C25.7925 27.4888 25.7588 27.5626 25.6663 27.6363C25.5688 27.7138 25.4913 27.7626 25.085 27.6013L17.6975 21.9376L13.235 26.0051L14.1725 20.0176L26.2425 8.76755C26.74 8.30505 26.5738 8.20755 26.5738 8.20755C26.6088 7.64005 25.8225 8.04131 25.8225 8.04131L10.6025 17.4701L10.5975 17.4451L3.30253 14.9888V14.9838L3.28378 14.9801C3.29656 14.9758 3.30909 14.9708 3.32128 14.9651L3.36128 14.9451L3.40003 14.9313C3.40003 14.9313 9.91378 12.1863 16.535 9.3988C19.85 8.00255 23.19 6.5963 25.7588 5.5113C28.3275 4.43255 30.2263 3.6413 30.3338 3.5988C30.4363 3.5588 30.3875 3.5588 30.4613 3.5588V3.55755Z" fill="white"/>
</svg>
