<svg width="36" height="36" viewBox="0 0 36 36" fill="none" xmlns="http://www.w3.org/2000/svg">
<path d="M34.1406 11.2188C33.2578 9.12109 31.9922 7.23828 30.3789 5.62109C28.7656 4.00781 26.8828 2.73828 24.7812 1.85938C22.6328 0.957031 20.3515 0.5 18 0.5H17.9219C15.5547 0.511719 13.2617 0.980469 11.1054 1.90234C9.02342 2.79297 7.15623 4.05859 5.55857 5.67188C3.96092 7.28516 2.70701 9.16016 1.83982 11.25C0.941384 13.4141 0.488259 15.7148 0.499977 18.082C0.511696 20.793 1.16013 23.4844 2.37498 25.8906V31.8281C2.37498 32.8203 3.17967 33.625 4.17185 33.625H10.1133C12.5195 34.8398 15.2109 35.4883 17.9219 35.5H18.0039C20.3437 35.5 22.6133 35.0469 24.75 34.1602C26.8398 33.2891 28.7187 32.0391 30.3281 30.4414C31.9414 28.8438 33.2109 26.9766 34.0976 24.8945C35.0195 22.7383 35.4883 20.4453 35.5 18.0781C35.5117 15.6992 35.0508 13.3906 34.1406 11.2188ZM28.2383 28.3281C25.5 31.0391 21.8672 32.5312 18 32.5312H17.9336C15.5781 32.5195 13.2383 31.9336 11.1719 30.832L10.8437 30.6562H5.34373V25.1562L5.16795 24.8281C4.06638 22.7617 3.48045 20.4219 3.46873 18.0664C3.4531 14.1719 4.94138 10.5156 7.67185 7.76172C10.3984 5.00781 14.0429 3.48438 17.9375 3.46875H18.0039C19.957 3.46875 21.8515 3.84766 23.6367 4.59766C25.3789 5.32812 26.9414 6.37891 28.2851 7.72266C29.625 9.0625 30.6797 10.6289 31.4101 12.3711C32.1679 14.1758 32.5469 16.0898 32.539 18.0664C32.5156 21.957 30.9883 25.6016 28.2383 28.3281Z" fill="white"/>
</svg>
