<svg width="36" height="26" viewBox="0 0 36 26" fill="none" xmlns="http://www.w3.org/2000/svg">
<path d="M35.5 12.8906C35.5 12.8047 35.5 12.707 35.4961 12.5937C35.4922 12.2773 35.4844 11.9219 35.4766 11.543C35.4453 10.4531 35.3906 9.36718 35.3047 8.34375C35.1875 6.93359 35.0156 5.75781 34.7812 4.875C34.5339 3.95371 34.0491 3.11347 33.3753 2.43827C32.7014 1.76306 31.8622 1.27655 30.9414 1.02734C29.8359 0.730468 27.6719 0.546875 24.625 0.433594C23.1758 0.378906 21.625 0.34375 20.0742 0.324219C19.5312 0.316406 19.0273 0.3125 18.5742 0.308594H17.4258C16.9727 0.3125 16.4688 0.316406 15.9258 0.324219C14.375 0.34375 12.8242 0.378906 11.375 0.433594C8.32812 0.550781 6.16016 0.734375 5.05859 1.02734C4.1375 1.27593 3.29793 1.76225 2.624 2.43754C1.95007 3.11284 1.46547 3.95341 1.21875 4.875C0.980469 5.75781 0.8125 6.93359 0.695312 8.34375C0.609375 9.36718 0.554687 10.4531 0.523437 11.543C0.511719 11.9219 0.507812 12.2773 0.503906 12.5937C0.503906 12.707 0.5 12.8047 0.5 12.8906V13.1094C0.5 13.1953 0.5 13.293 0.503906 13.4062C0.507812 13.7227 0.515625 14.0781 0.523437 14.457C0.554687 15.5469 0.609375 16.6328 0.695312 17.6562C0.8125 19.0664 0.984375 20.2422 1.21875 21.125C1.71875 22.9961 3.1875 24.4726 5.05859 24.9726C6.16016 25.2695 8.32812 25.4531 11.375 25.5664C12.8242 25.6211 14.375 25.6562 15.9258 25.6758C16.4688 25.6836 16.9727 25.6875 17.4258 25.6914H18.5742C19.0273 25.6875 19.5312 25.6836 20.0742 25.6758C21.625 25.6562 23.1758 25.6211 24.625 25.5664C27.6719 25.4492 29.8398 25.2656 30.9414 24.9726C32.8125 24.4726 34.2812 23 34.7812 21.125C35.0195 20.2422 35.1875 19.0664 35.3047 17.6562C35.3906 16.6328 35.4453 15.5469 35.4766 14.457C35.4883 14.0781 35.4922 13.7227 35.4961 13.4062C35.4961 13.293 35.5 13.1953 35.5 13.1094V12.8906ZM32.6875 13.0937C32.6875 13.1758 32.6875 13.2656 32.6836 13.3711C32.6797 13.6758 32.6719 14.0117 32.6641 14.375C32.6367 15.4141 32.582 16.4531 32.5 17.418C32.3945 18.6758 32.2461 19.707 32.0625 20.3984C31.8203 21.3008 31.1094 22.0156 30.2109 22.2539C29.3906 22.4727 27.3242 22.6484 24.5156 22.7539C23.0938 22.8086 21.5625 22.8437 20.0352 22.8633C19.5 22.8711 19.0039 22.875 18.5586 22.875H17.4414L15.9648 22.8633C14.4375 22.8437 12.9102 22.8086 11.4844 22.7539C8.67578 22.6445 6.60547 22.4727 5.78906 22.2539C4.89062 22.0117 4.17969 21.3008 3.9375 20.3984C3.75391 19.707 3.60547 18.6758 3.5 17.418C3.41797 16.4531 3.36719 15.4141 3.33594 14.375C3.32422 14.0117 3.32031 13.6719 3.31641 13.3711C3.31641 13.2656 3.3125 13.1719 3.3125 13.0937V12.9062C3.3125 12.8242 3.3125 12.7344 3.31641 12.6289C3.32031 12.3242 3.32813 11.9883 3.33594 11.625C3.36328 10.5859 3.41797 9.54687 3.5 8.58203C3.60547 7.32422 3.75391 6.29297 3.9375 5.60156C4.17969 4.69922 4.89062 3.98437 5.78906 3.74609C6.60938 3.52734 8.67578 3.35156 11.4844 3.24609C12.9063 3.1914 14.4375 3.15625 15.9648 3.13672C16.5 3.1289 16.9961 3.125 17.4414 3.125H18.5586L20.0352 3.13672C21.5625 3.15625 23.0898 3.1914 24.5156 3.24609C27.3242 3.35547 29.3945 3.52734 30.2109 3.74609C31.1094 3.98828 31.8203 4.69922 32.0625 5.60156C32.2461 6.29297 32.3945 7.32422 32.5 8.58203C32.582 9.54687 32.6328 10.5859 32.6641 11.625C32.6758 11.9883 32.6797 12.3281 32.6836 12.6289C32.6836 12.7344 32.6875 12.8281 32.6875 12.9062V13.0937ZM14.5234 18.2344L23.5859 12.9609L14.5234 7.76562V18.2344Z" fill="white"/>
</svg>
